PathFileType	3	(X/Y/Z)	C:\Users\hrist\Documents\PhD\NeuroM Model Experiments\Complete_Controller_Data_Collection\S2_M\LG_Walk_Slower\LG_Walk_Slower01.trc																																																																																																							
DataRate	CameraRate	NumFrames	NumMarkers	Units	OrigDataRate	OrigDataStartFrame	OrigNumFrames																																																																																																			
100	100	6	35	mm	100	552	481																																																																																																			
Frame#	Time	R.ASIS			L.ASIS			V.Sacral			R.Thigh.Upper			R.Knee.Med			R.Knee.Lat			R.Thigh.Rear			R.Thigh.Front			L.Thigh.Upper			L.Knee.Med			L.Knee.Lat			L.Thigh.Rear			L.Thigh.Front			R.Shank.Upper			R.Ankle.Med			R.Ankle.Lat			R.Shank.Front			R.Shank.Rear			L.Shank.Upper			L.Ankle.Med			L.Ankle.Lat			L.Shank.Front			L.Shank.Rear			R.Toe.Tip			R.Heel			R.Toe.Med			R.Toe.Lat			R.Midfoot.Lat			R.Midfoot.Sup			L.Heel			L.Toe.Tip			L.Toe.Med			L.Toe.Lat			L.Midfoot.Lat			L.Midfoot.Sup		
		X1	Y1	Z1	X2	Y2	Z2	X3	Y3	Z3	X4	Y4	Z4	X5	Y5	Z5	X6	Y6	Z6	X7	Y7	Z7	X8	Y8	Z8	X9	Y9	Z9	X10	Y10	Z10	X11	Y11	Z11	X12	Y12	Z12	X13	Y13	Z13	X14	Y14	Z14	X15	Y15	Z15	X16	Y16	Z16	X17	Y17	Z17	X18	Y18	Z18	X19	Y19	Z19	X20	Y20	Z20	X21	Y21	Z21	X22	Y22	Z22	X23	Y23	Z23	X24	Y24	Z24	X25	Y25	Z25	X26	Y26	Z26	X27	Y27	Z27	X28	Y28	Z28	X29	Y29	Z29	X30	Y30	Z30	X31	Y31	Z31	X32	Y32	Z32	X33	Y33	Z33	X34	Y34	Z34	X35	Y35	Z35
552	5.51	-182.4707655	996.3270009	-792.4566661	77.25331997	999.6873962	-831.3422074	-75.79199315	1021.19673	-998.8345281	-239.3511218	763.0216883	-860.7371605	-58.36382234	514.5884902	-845.846881	-195.0060833	505.3603756	-843.4516622	-218.1144959	653.7727539	-854.9515396	-135.6679977	723.2693159	-744.6982027	128.1619555	811.040272	-918.9058613	21.54015822	499.6835204	-826.788476	142.5552762	515.1925908	-868.5358066	141.9408733	657.9359695	-882.5173458	97.48059142	733.8773454	-763.9891175	-190.5395594	455.3771802	-847.5651689	-56.58106638	96.50729922	-846.0179333	-139.0221627	67.60075135	-879.6244525	-125.5926796	407.7482563	-789.9049805	-198.872665	369.7746199	-860.3706755	146.9484615	486.3018274	-888.9921883	7.123591246	199.2344525	-1117.235689	77.51058497	230.1831084	-1169.612033	114.2740071	411.2673825	-856.740887	148.9615391	437.6371238	-937.7805571	-103.9228628	40.38262959	-682.8992198	-81.22739343	29.82899914	-942.9815718	-68.06401223	27.83215784	-725.6599925	-177.5475883	26.61871099	-740.8558167	-166.6663166	36.94906687	-783.9511623	-73.01070059	54.0195236	-758.756189	3.296417259	232.7665247	-1225.615151	102.1656443	55.07277146	-1066.069555	52.70283903	71.01076847	-1096.049442	149.5208278	97.24205546	-1136.213222	130.9436684	130.8744973	-1147.489407	42.28371484	106.1624127	-1105.226818
553	5.52	-183.3578217	996.137856	-789.6659823	76.29699946	1000.264697	-828.6643337	-76.44950592	1021.221495	-996.1142325	-239.4407689	762.7117761	-858.6032586	-58.2280359	514.5189743	-845.0696652	-194.8041547	505.0385791	-841.9315379	-218.0646718	653.4776344	-853.1637839	-135.7430409	722.7789857	-742.5542387	127.8052269	811.1527552	-913.8511489	21.08516535	501.0656447	-817.8118528	142.2227347	516.1283776	-859.0079884	141.8244836	658.526145	-875.0652996	96.63879081	735.941272	-758.0717036	-190.3095407	455.0537946	-846.0886734	-55.80969548	96.18190379	-846.019832	-138.8411379	67.77721596	-879.4437771	-124.8756581	407.4490132	-789.0023183	-198.654571	369.4744293	-858.9697697	146.6653483	487.0419046	-879.1487832	6.996131821	198.6010715	-1105.552719	77.3033673	229.0186527	-1158.185788	113.8911757	412.3565981	-846.3999332	148.6087505	438.1177042	-927.6899193	-103.8567747	39.87763979	-682.6429905	-81.04462579	29.84124756	-942.8999547	-68.04341546	27.67528037	-725.4795414	-177.4830065	26.66550273	-740.7562346	-166.5647761	37.15338145	-783.9171597	-72.70490735	53.56135949	-758.6418583	3.16759759	230.586843	-1214.454421	102.4639779	55.95412613	-1051.867879	52.94091652	71.20766413	-1082.181594	149.6973803	97.00498878	-1122.720358	131.078522	130.3766698	-1134.555301	42.43820439	106.1000336	-1091.955411
554	5.53	-184.2024956	995.8725631	-786.8725088	75.38169548	1000.746871	-826.0332521	-77.12553737	1021.237152	-993.4158033	-239.5668899	762.3124064	-856.4614278	-58.07979301	514.4470702	-844.4598477	-194.5781644	504.7316975	-840.3822787	-218.0151622	653.1585186	-851.3576345	-135.6441277	722.246193	-740.4717917	127.4969178	811.2959291	-908.8550529	20.69006889	502.4456834	-808.7270405	141.9137557	517.1353223	-849.5827061	141.7499875	659.1960179	-867.6676784	95.70664751	737.9921565	-752.2730266	-189.9900775	454.6604057	-844.5670179	-55.00454324	95.89133734	-845.9653501	-138.4697849	67.99545048	-879.1738208	-124.046423	407.1226982	-788.1194207	-198.3841507	369.1548316	-857.4928694	146.4178212	487.9191707	-869.5000815	7.060807632	197.4928885	-1093.367416	77.19072457	227.4394465	-1146.444237	113.6124708	413.5005434	-836.0437565	148.2645579	438.5558326	-917.479122	-103.76224	39.3509549	-682.3775737	-80.87807255	29.88428931	-942.8117776	-68.01411989	27.4748543	-725.3203474	-177.4382073	26.75565543	-740.6614489	-166.4118506	37.37713918	-783.8336806	-72.3710541	53.12489052	-758.4860981	3.119706921	227.7864259	-1202.834663	103.0627038	56.54659223	-1037.152633	53.44718528	71.02165895	-1067.710864	150.070885	96.3984227	-1108.690111	131.3969972	129.4926015	-1121.131844	42.76964587	105.6901114	-1078.164568
555	5.54	-184.9974029	995.54498	-784.0758631	74.52929814	1001.140769	-823.4437506	-77.82737652	1021.234565	-990.73578	-239.6258089	761.9115038	-854.193227	-57.90695449	514.3534925	-843.8677258	-194.3689893	504.4377788	-838.8150788	-217.9407697	652.8242476	-849.4913716	-135.3882138	721.6934066	-738.4335318	127.226122	811.5045714	-903.9742846	20.37247906	503.8204069	-799.5975268	141.6097844	518.2282511	-840.2872506	141.6873299	659.9624073	-860.3120248	94.71373374	740.0286527	-746.6303581	-189.8894295	454.3345066	-843.1083093	-54.24767791	95.65955874	-845.8253583	-137.9753206	68.14251585	-878.8836943	-123.1982733	406.7660566	-787.2178553	-198.0958687	368.8343482	-856.0157751	146.1699889	488.9443077	-860.0867024	7.33581616	195.8918785	-1080.642172	77.1771818	225.4028234	-1134.341232	113.447469	414.6933184	-825.6972873	147.9418977	438.9870819	-907.2861768	-103.6453474	38.81734195	-682.1115211	-80.67316478	29.91621278	-942.6978847	-68.01681297	27.2516077	-725.1953471	-177.3972887	26.88693078	-740.5564195	-166.2251435	37.6044858	-783.7043763	-72.02930237	52.72004284	-758.2914713	3.12408889	224.3322088	-1190.72808	104.0048511	56.82100957	-1021.955334	54.29485606	70.47809907	-1052.631287	150.721867	95.45095181	-1094.174172	131.9173633	128.2268488	-1107.229996	43.34892333	104.9313265	-1063.792882
556	5.55	-185.7155685	995.1832361	-781.2776033	73.7562208	1001.464964	-820.8993451	-78.55003859	1021.192285	-988.0696561	-239.596407	761.5484184	-851.7787766	-57.70714523	514.2163074	-843.1482036	-194.194435	504.1369823	-837.2316372	-217.796561	652.4760277	-847.52314	-135.0357195	721.144493	-736.4259023	126.9707489	811.7543489	-899.2346407	20.12894527	505.1920855	-790.6418267	141.3133858	519.4078924	-831.1609968	141.6139664	660.8162498	-852.9925431	93.72964104	742.0661022	-741.1599541	-189.9810922	454.0673598	-841.7169273	-53.56144641	95.43439828	-845.6659304	-137.483557	68.2113649	-878.6451011	-122.4271913	406.3924069	-786.2381816	-197.804262	368.5236368	-854.5793324	145.9136878	490.0325346	-850.8424394	7.777299585	193.8186796	-1067.42775	77.269527	222.8201962	-1121.788279	113.4044024	415.9539417	-815.4039218	147.6603665	439.4328026	-897.2231666	-103.5269591	38.3082451	-681.856608	-80.39280609	29.90639012	-942.5627724	-68.04296324	27.03167839	-725.0886005	-177.3191532	27.0234318	-740.4318801	-166.0404129	37.83393836	-783.5634784	-71.68893417	52.32683738	-758.105559	3.167930452	220.2039316	-1178.139947	105.344122	56.83533587	-1006.231642	55.52320428	69.61444855	-1036.948501	151.7172118	94.23398815	-1079.240141	132.6857725	126.6093734	-1092.870576	44.26796866	103.7859556	-1048.808549
557	5.56	-186.3240603	994.8090178	-778.473594	73.0705044	1001.739821	-818.3993922	-79.27750017	1021.09678	-985.414785	-239.5590241	761.1942933	-849.3098768	-57.52629172	514.0451003	-842.2896632	-194.0247118	503.8241205	-835.624437	-217.5880834	652.1176799	-845.4474723	-134.6547727	720.6199342	-734.4423721	126.7078499	812.0034569	-894.6520906	19.93767614	506.5984713	-781.9831782	141.035474	520.6615063	-822.2377812	141.5417934	661.7166417	-845.7909911	92.81650051	744.1267313	-735.8678824	-189.9850583	453.7619411	-840.2939014	-52.9282306	95.18317316	-845.5540661	-137.037767	68.25465078	-878.4620048	-121.7858425	406.0198991	-785.1352982	-197.5146555	368.2291053	-853.1648601	145.6347036	491.0738851	-841.6893308	8.357796986	191.2974734	-1053.781495	77.47105192	219.6237248	-1108.701593	113.4790651	417.3191178	-805.2027045	147.4182739	439.8888894	-887.3508966	-103.4272879	37.86398474	-681.6274997	-80.0814695	29.86901493	-942.4368015	-68.0488205	26.83478622	-724.9733176	-177.2042749	27.12565991	-740.3105614	-165.8859777	38.05918952	-783.4538289	-71.36318669	51.93837986	-757.9736155	3.261625972	215.4111273	-1165.075347	107.1379345	56.68873958	-989.9179039	57.1436103	68.46404136	-1020.725162	153.0665975	92.79413935	-1063.882713	133.7444476	124.6701779	-1078.077446	45.56135322	102.2578906	-1033.265585
